<?xml version="1.0" ?>
<!DOCTYPE svg  PUBLIC '-//W3C//DTD SVG 1.1//EN'  'http://www.w3.org/Graphics/SVG/1.1/DTD/svg11.dtd'>
<!-- Uploaded to: SVG Repo, www.svgrepo.com, Generator: SVG Repo Mixer Tools -->
<svg fill="#000000" width="800px" height="800px" viewBox="0 0 2.33333 2.33333" style="shape-rendering:geometricPrecision; text-rendering:geometricPrecision; image-rendering:optimizeQuality; fill-rule:evenodd; clip-rule:evenodd" xml:space="preserve" xmlns="http://www.w3.org/2000/svg" xmlns:xlink="http://www.w3.org/1999/xlink">
<defs>
<style type="text/css">
   <![CDATA[
    .fil0 {fill:black}
   ]]>
  </style>
</defs>
<g id="Layer_x0020_1">
<path class="fil0" d="M0.52302 1.88599c-0.0130591,0 -0.0239764,-0.0125866 -0.0194409,-0.0263858l0.0777677 -0.24024 -0.213854 3.93701e-006c-0.0305512,0 -0.0541575,-0.0236063 -0.0541575,-0.0541575l0 -0.873469c0,-0.0305512 0.0236063,-0.0541575 0.0541575,-0.0541575l1.1762 0c0.0132717,0 0.0225118,0.0121339 0.0194449,0.0236063 -0.00277559,0.00972441 -0.00416929,0.0222205 -0.00416929,0.0361063 0,0.134559 0.127839,0.241992 0.272181,0.199965 0.0132087,-0.00384646 0.0263819,0.00497244 0.0263819,0.0194409l0 0.647118c0,0.0305472 -0.0236063,0.0541575 -0.0541575,0.0541575l-0.877638 0 -0.390213 0.26385c-0.00416535,0.00277559 -0.00833071,0.00416142 -0.0125,0.00416142zm-0.155528 -1.20814c-0.00833071,0 -0.0138858,0.00555512 -0.0138858,0.0138858l0 0.872083c0,0.00833071 0.00555512,0.0138858 0.0138858,0.0138858l0.243016 0c0.0144921,0 0.0232638,0.0131654 0.0194409,0.0263858l-0.0694331 0.211079 0.347165 -0.234685c0.00277559,-0.00277953 0.00694094,-0.00277953 0.0111102,-0.00277953l0.885965 0c0.00833465,0 0.0138858,-0.00555118 0.0138858,-0.0138858l0 -0.620732c-0.0166614,0.00277559 -0.0333268,0.00555512 -0.0486024,0.00555512 -0.137476,0 -0.249957,-0.11248 -0.249957,-0.249961 0,-0.00694094 0,-0.0138819 0.00138583,-0.019437l-1.15398 0 0 -0.0013937z"/>
<path class="fil0" d="M1.71449 0.815335c-0.00138583,0 -0.00138583,0 0,0 -0.00138583,0 -0.00138583,0 0,0 -0.0113661,0 -0.0282047,-0.0133189 -0.0138858,-0.0333268l0.0944291 -0.095815c0.0152126,-0.0153268 0.014185,-0.0407402 0,-0.0555472 -0.0152756,-0.0138858 -0.0402717,-0.0138858 -0.0555433,0 -0.00626378,0.00633465 -0.0210984,0.030126 -0.0388858,0.0138819 -0.0173071,-0.0158071 0.00231102,-0.0316614 0.0111102,-0.0402717 0.0504764,-0.0493661 0.134701,-0.0144409 0.134701,0.0541575 0,0.0208346 -0.00833071,0.0402717 -0.0236063,0.0555472l-0.0611024 0.0624921 0.0624882 0c0.0257756,0 0.0257756,0.0388819 0,0.0388819l-0.109705 0z"/>
<path class="fil0" d="M1.77004 0.94726c-0.137476,0 -0.249957,-0.112484 -0.249957,-0.249961 0,-0.137476 0.11248,-0.249961 0.249957,-0.249961 0.13748,0 0.249961,0.112484 0.249961,0.249961 0,0.137476 -0.11248,0.249961 -0.249961,0.249961zm0 -0.45965c-0.115256,0 -0.209685,0.0944291 -0.209685,0.209685 0,0.11526 0.0944291,0.209689 0.209685,0.209689 0.11526,0 0.209689,-0.0930394 0.209689,-0.209685 0,-0.116646 -0.0944291,-0.209689 -0.209689,-0.209689z"/>
<path class="fil0" d="M1.49925 0.900043l-0.934571 0c-0.0257717,0 -0.0257717,-0.0388819 0,-0.0388819l0.933181 -3.93701e-006c0.0255669,0 0.0257835,0.0388858 0.00138976,0.0388858z"/>
<path class="fil0" d="M1.49925 1.0653l-0.388823 0c-0.0257756,0 -0.0257756,-0.0388819 0,-0.0388819l0.387433 -3.93701e-006c0.0255669,0 0.0257835,0.0388858 0.00138976,0.0388858zm-0.541579 0l-0.392992 0c-0.0257717,0 -0.0257717,-0.0388819 0,-0.0388819l0.391602 -3.93701e-006c0.025563,0 0.0257795,0.0388858 0.00138976,0.0388858z"/>
<path class="fil0" d="M1.49925 1.23055l-0.934571 0c-0.0257717,0 -0.0257717,-0.0388819 0,-0.0388819l0.933181 -3.93701e-006c0.0255669,0 0.0257835,0.0388858 0.00138976,0.0388858z"/>
<path class="fil0" d="M1.49925 1.39719l-0.204134 0c-0.0257717,0 -0.0257717,-0.0388819 0,-0.0388819l0.204134 0c0.0257756,0 0.0257677,0.0388819 0,0.0388819zm-0.358276 0l-0.576295 0c-0.0257717,0 -0.0257717,-0.0388819 0,-0.0388819l0.576295 0c0.0257756,0 0.0257717,0.0388819 0,0.0388819z"/>
</g>
</svg>