<?xml version="1.0" encoding="iso-8859-1"?>
<!-- Uploaded to: SVG Repo, www.svgrepo.com, Generator: SVG Repo Mixer Tools -->
<svg fill="#000000" height="800px" width="800px" version="1.1" id="Layer_1" xmlns="http://www.w3.org/2000/svg" xmlns:xlink="http://www.w3.org/1999/xlink" 
	 viewBox="0 0 512 512" xml:space="preserve">
<g>
	<g>
		<path d="M493.921,234.331c-17.902-27.37-46.904-45.649-79.568-50.15c-22.032-3.037-42.025-12.988-57.816-28.781
			c-15.794-15.792-25.746-35.787-28.782-57.821c-4.5-32.659-22.767-61.667-50.121-79.586C251.066,0.586,218.362-4.487,187.904,4.07
			c-42.312,11.889-81.188,34.69-112.426,65.938C-25.075,170.594-25.016,334.604,75.609,435.613
			c49.007,49.192,114.184,76.321,183.527,76.387c0.088,0,0.164,0,0.254,0c68.997-0.003,133.834-26.835,182.569-75.571
			c31.142-31.142,53.899-69.888,65.808-112.048C516.405,293.81,511.358,260.988,493.921,234.331z M485.476,318.083
			c-10.836,38.359-31.548,73.616-59.897,101.965c-44.362,44.362-103.375,68.785-166.19,68.785c-0.076,0-0.154,0-0.23,0
			c-63.148-0.06-122.504-24.767-167.136-69.57C0.394,327.284,0.321,177.957,91.861,86.387
			c28.435-28.445,63.814-49.197,102.309-60.013c7.842-2.203,15.76-3.293,23.606-3.293c16.533,0,32.736,4.838,47.163,14.29
			c21.75,14.25,36.281,37.347,39.867,63.371c3.731,27.08,15.953,51.646,35.349,71.041c19.394,19.392,43.957,31.616,71.035,35.348
			c26.024,3.587,49.111,18.123,63.345,39.882C488.504,268.369,492.39,293.61,485.476,318.083z"/>
	</g>
</g>
<g>
	<g>
		<path d="M404.426,263.512c-31.443,0-57.022,25.58-57.022,57.024c0,31.442,25.58,57.023,57.022,57.024
			c31.443,0,57.024-25.581,57.024-57.024C461.45,289.094,435.869,263.512,404.426,263.512z M404.426,354.393
			c-18.669,0-33.856-15.189-33.856-33.857c0-18.67,15.188-33.857,33.856-33.857c18.67,0,33.857,15.188,33.857,33.857
			C438.284,339.204,423.094,354.393,404.426,354.393z"/>
	</g>
</g>
<g>
	<g>
		<path d="M187.325,324.616c-10.771-10.771-25.091-16.703-40.322-16.703c-15.232,0-29.552,5.932-40.323,16.702
			c-10.77,10.77-16.702,25.09-16.702,40.322c0,15.232,5.932,29.551,16.702,40.322c10.771,10.77,25.09,16.702,40.323,16.702
			c15.231,0,29.551-5.932,40.322-16.702C209.556,383.026,209.556,346.849,187.325,324.616z M170.943,388.876
			c-6.395,6.395-14.897,9.917-23.94,9.917c-9.044,0-17.546-3.522-23.941-9.917c-6.395-6.395-9.917-14.896-9.917-23.94
			s3.521-17.546,9.917-23.94c6.395-6.395,14.897-9.917,23.941-9.917c9.043,0,17.545,3.522,23.94,9.916
			C184.143,354.196,184.143,375.676,170.943,388.876z"/>
	</g>
</g>
<g>
	<g>
		<path d="M191.402,50.487c-31.442,0-57.023,25.58-57.023,57.024s25.579,57.024,57.023,57.024c31.443,0,57.022-25.58,57.022-57.024
			S222.844,50.487,191.402,50.487z M191.402,141.37c-18.669,0-33.856-15.188-33.856-33.857c0-18.67,15.188-33.857,33.856-33.857
			c18.668,0,33.856,15.188,33.856,33.857C225.258,126.182,210.07,141.37,191.402,141.37z"/>
	</g>
</g>
<g>
	<g>
		<path d="M287.085,342.962c-31.443,0-57.022,25.58-57.022,57.024s25.58,57.024,57.022,57.024c31.442,0,57.024-25.58,57.024-57.024
			S318.529,342.962,287.085,342.962z M287.085,433.843c-18.669,0-33.856-15.188-33.856-33.857s15.188-33.857,33.856-33.857
			c18.67,0,33.857,15.188,33.857,33.857S305.756,433.843,287.085,433.843z"/>
	</g>
</g>
<g>
	<g>
		<path d="M111.952,167.828c-31.442,0-57.022,25.58-57.022,57.024c0,31.444,25.58,57.024,57.022,57.024
			c31.442,0,57.024-25.58,57.024-57.024C168.976,193.408,143.394,167.828,111.952,167.828z M111.951,258.709
			c-18.669,0-33.856-15.188-33.856-33.857c0-18.67,15.188-33.857,33.856-33.857c18.67,0,33.857,15.188,33.857,33.857
			C145.808,243.521,130.621,258.709,111.951,258.709z"/>
	</g>
</g>
<g>
	<g>
		<path d="M297.957,213.979c-4.524-4.523-11.856-4.523-16.382,0l-73.16,73.16c-4.523,4.523-4.523,11.858,0,16.382
			c2.262,2.262,5.226,3.393,8.19,3.393s5.928-1.131,8.19-3.393l73.16-73.16C302.48,225.838,302.48,218.504,297.957,213.979z"/>
	</g>
</g>
<g>
	<g>
		<path d="M325.123,195.914c-0.151-0.741-0.381-1.471-0.659-2.166c-0.29-0.707-0.65-1.378-1.066-2.004
			c-0.429-0.637-0.915-1.228-1.448-1.761c-0.533-0.533-1.125-1.019-1.762-1.436c-0.625-0.417-1.297-0.776-1.992-1.066
			c-0.707-0.29-1.425-0.51-2.166-0.66c-1.506-0.301-3.035-0.301-4.529,0c-0.741,0.151-1.471,0.371-2.166,0.66
			c-0.705,0.29-1.377,0.649-2.003,1.066c-0.637,0.417-1.229,0.904-1.762,1.436s-1.019,1.124-1.435,1.761
			c-0.417,0.625-0.777,1.297-1.067,2.004c-0.29,0.695-0.508,1.425-0.659,2.166c-0.151,0.741-0.232,1.506-0.232,2.259
			c0,0.753,0.081,1.517,0.232,2.27c0.151,0.73,0.37,1.459,0.659,2.166c0.29,0.695,0.65,1.367,1.067,1.992
			c0.416,0.637,0.902,1.228,1.435,1.761c0.533,0.533,1.125,1.019,1.762,1.448c0.625,0.417,1.297,0.776,2.003,1.066
			c0.696,0.29,1.425,0.51,2.166,0.66c0.742,0.151,1.506,0.22,2.259,0.22s1.517-0.07,2.27-0.22c0.741-0.151,1.459-0.371,2.166-0.66
			c0.695-0.29,1.367-0.649,1.992-1.066c0.637-0.429,1.229-0.915,1.762-1.448c0.533-0.533,1.019-1.124,1.448-1.761
			c0.416-0.625,0.776-1.297,1.066-1.992c0.278-0.707,0.509-1.436,0.659-2.166c0.139-0.753,0.22-1.517,0.22-2.27
			C325.343,197.42,325.262,196.656,325.123,195.914z"/>
	</g>
</g>
</svg>