<?xml version="1.0" encoding="iso-8859-1"?>
<!-- Uploaded to: SVG Repo, www.svgrepo.com, Generator: SVG Repo Mixer Tools -->
<svg fill="#000000" height="800px" width="800px" version="1.1" id="Layer_1" xmlns="http://www.w3.org/2000/svg" xmlns:xlink="http://www.w3.org/1999/xlink" 
	 viewBox="0 0 213.696 213.696" xml:space="preserve">
<g>
	<g>
		<g>
			<path d="M195.096,51.608h-60.22L128.38,30.64c-0.256-0.832-1.024-1.4-1.896-1.4H53.832c-0.868,0-1.64,0.568-1.896,1.4
				L45.44,51.608h-3.616v-9.284c0-0.78-0.636-1.416-1.416-1.416H14.06c-0.784,0-1.416,0.636-1.416,1.416v10.332
				C5.32,55.108,0,61.848,0,69.856v91.028c0,10.064,8.344,18.248,18.596,18.248h42.636c0.428,0,0.804-0.164,1.132-0.396
				c8.52,3.66,17.912,5.72,27.796,5.72c10.024,0,19.536-2.132,28.152-5.888c0.356,0.348,0.844,0.564,1.38,0.564H195.1
				c10.252,0,18.596-8.184,18.596-18.248V69.856C213.696,59.792,205.352,51.608,195.096,51.608z M55.296,33.212h4.56
				c0,4.14,0,8.28,0,12.42c0,1.46,2.268,1.46,2.268,0c0-4.14,0-8.28,0-12.42h9.196c0,4.14,0,8.28,0,12.42c0,1.46,2.268,1.46,2.268,0
				c0-4.14,0-8.28,0-12.42h9.196c0,4.14,0,8.28,0,12.42c0,1.46,2.268,1.46,2.268,0c0-4.14,0-8.28,0-12.42h9.196
				c0,4.14,0,8.28,0,12.42c0,1.46,2.268,1.46,2.268,0c0-4.14,0-8.28,0-12.42h9.196c0,4.14,0,8.28,0,12.42c0,1.46,2.268,1.46,2.268,0
				c0-4.14,0-8.28,0-12.42h9.196c0,4.14,0,8.28,0,12.42c0,1.46,2.268,1.46,2.268,0c0-4.14,0-8.28,0-12.42h5.58l5.652,18.232H112.5
				c-0.308,0-0.592,0.084-0.852,0.208c-6.772-2.164-13.984-3.364-21.48-3.364c-7.456,0-14.624,1.184-21.36,3.324l-19.156-0.148
				L55.296,33.212z M34.712,43.74h4.276v7.868h-4.276V43.74z M27.8,43.74h5.78v7.868H27.8V43.74z M21.272,43.74h5.396v7.868h-5.396
				V43.74z M15.476,43.74h4.664v7.868h-1.548c-1.068,0-2.1,0.14-3.116,0.308V43.74z M3.964,69.852
				c0-7.868,6.564-14.276,14.628-14.276h40.444c-14.352,7.08-25.868,18.852-32.408,33.288H3.964V69.852z M3.964,100.02
				c0.064,0.148,0.152,0.264,0.276,0.264l3.768,0.012c0.196,0,0.356-0.252,0.356-0.568c0-0.312-0.156-0.568-0.352-0.568
				l-3.768-0.012c-0.124,0-0.212,0.116-0.276,0.268v-6.26l16.12,0.052c0.196,0,0.356-0.252,0.356-0.568
				c0-0.312-0.156-0.568-0.352-0.568L3.972,92.02v-1.34h21.864c-1.16,2.752-2.084,5.608-2.86,8.524L9.744,99.16
				c-0.196,0-0.356,0.252-0.356,0.568c0,0.312,0.156,0.568,0.352,0.568l12.936,0.044c-0.488,1.964-0.876,3.96-1.184,5.988
				l-17.528-0.056V100.02z M3.98,142.032l12.088,0.044c0.168,0,0.304-0.252,0.304-0.568c0-0.312-0.136-0.568-0.3-0.568
				l-12.104-0.044v-5.632l13.78,0.052c0.168,0,0.304-0.252,0.304-0.568c0-0.312-0.136-0.568-0.3-0.568l-13.78-0.052v-5.832
				l2.168,0.008c0.168,0,0.304-0.252,0.304-0.568c0-0.312-0.136-0.568-0.3-0.568l-2.172-0.008v-5.836l12.456,0.048
				c0.168,0,0.304-0.252,0.304-0.568c0-0.312-0.136-0.568-0.3-0.568l-12.456-0.048v-5.884l15.704,0.052
				c0.196,0,0.356-0.252,0.356-0.568c0-0.312-0.156-0.568-0.352-0.568L3.98,113.168v-5.788l17.352,0.056
				c-0.392,2.924-0.668,5.888-0.668,8.916c0,3.704,0.388,7.316,0.972,10.86L7.628,127.16c-0.168,0-0.304,0.252-0.304,0.568
				c0,0.312,0.136,0.568,0.3,0.568l14.188,0.052c1.02,5.592,2.732,10.94,5.06,15.972H3.98V142.032z M18.592,175.16
				c-8.068,0-14.628-6.408-14.628-14.276v-14.732h23.784c6.06,12.128,15.664,22.228,27.52,29.008H18.592z M90.16,180.484
				c-36.136,0-65.54-28.76-65.54-64.112c0-35.356,29.4-64.116,65.54-64.116s65.54,28.76,65.54,64.116
				C155.7,151.724,126.296,180.484,90.16,180.484z M195.208,114.344l5.344,0.008h0.004l9.124,0.016v5.892l-17.36-0.036l-5.348-0.012
				c-0.312,0-0.568,0.252-0.568,0.568c0,0.312,0.252,0.568,0.564,0.568l8.624,0.02c0,0,0,0,0.004,0l14.088,0.028v12.8l-14.112-0.028
				c-0.004,0-0.004-0.004-0.008-0.004l-5.896-0.012c-0.312,0-0.568,0.252-0.568,0.568c0,0.312,0.252,0.568,0.564,0.568l2.616,0.004
				c0.004,0,0.004,0.004,0.008,0.004l17.396,0.036v5.636l-18.024-0.04l-5.348-0.012c-0.312,0-0.568,0.252-0.568,0.568
				c0,0.312,0.252,0.568,0.564,0.568l8.624,0.02c0,0,0,0,0.004,0l14.752,0.032v2.228H153.46c2.408-5.2,4.148-10.752,5.152-16.556
				c0.036,0.276,0.252,0.496,0.536,0.496l6.02,0.012c0.312,0,0.568-0.252,0.568-0.568c0-0.312-0.252-0.568-0.564-0.568l-6.02-0.012
				c-0.252,0-0.432,0.184-0.504,0.416c0.348-2.056,0.608-4.136,0.764-6.248l25.044,0.052c0.312,0,0.568-0.252,0.568-0.568
				c0-0.312-0.252-0.568-0.564-0.568l-24.988-0.052c0.072-1.268,0.196-2.52,0.196-3.804c0-3.032-0.272-5.992-0.668-8.92l5.564,0.012
				c0.312,0,0.568-0.252,0.568-0.568c0-0.312-0.252-0.568-0.564-0.568l-5.744-0.012c-0.828-5.444-2.268-10.692-4.332-15.64h55.192
				v22.572l-5.844-0.012c-0.004,0-0.004-0.004-0.008-0.004l-8.624-0.016c-0.312,0-0.568,0.252-0.568,0.568
				S194.892,114.344,195.208,114.344z M209.728,160.884c0,7.868-6.564,14.276-14.632,14.276h-70.048
				c11.856-6.78,21.46-16.876,27.52-29.008h57.16V160.884z M209.728,88.868h-56.036c-6.54-14.436-18.056-26.208-32.408-33.288H195.1
				c8.064-0.004,14.628,6.404,14.628,14.276V88.868z"/>
			<path d="M22.344,134.204l-3.144-0.012c-0.168,0-0.304,0.252-0.304,0.568c0,0.312,0.136,0.568,0.3,0.568l3.144,0.012
				c0.168,0,0.304-0.252,0.304-0.568C22.644,134.456,22.512,134.204,22.344,134.204z"/>
			<path d="M22.004,140.968l-4.6-0.016c-0.168,0-0.304,0.252-0.304,0.568s0.136,0.568,0.304,0.568l4.6,0.016
				c0.168,0,0.304-0.252,0.304-0.568S22.172,140.968,22.004,140.968z"/>
			<path d="M164.596,92.084l-8.624-0.02c-0.312,0-0.568,0.252-0.568,0.568c0,0.312,0.252,0.568,0.564,0.568l8.624,0.02
				c0.312,0,0.568-0.252,0.568-0.568C165.164,92.336,164.908,92.084,164.596,92.084z"/>
			<path d="M167.448,93.128l25.916,0.056c0.312,0,0.568-0.252,0.568-0.568c0-0.312-0.252-0.568-0.564-0.568l-25.916-0.056
				c-0.312,0-0.568,0.252-0.568,0.568C166.88,92.876,167.136,93.128,167.448,93.128z"/>
			<path d="M195.876,93.188l8.62,0.02c0.312,0,0.568-0.252,0.568-0.568c0-0.312-0.252-0.568-0.564-0.568l-8.624-0.02
				c-0.312,0-0.568,0.252-0.568,0.568S195.56,93.188,195.876,93.188z"/>
			<path d="M168.056,99.12c-0.316,0-0.568,0.252-0.568,0.568c0,0.312,0.252,0.568,0.564,0.568l6.02,0.012
				c0.312,0,0.568-0.252,0.568-0.568c0-0.312-0.252-0.568-0.564-0.568L168.056,99.12z"/>
			<path d="M176.844,99.14c-0.312,0-0.568,0.252-0.568,0.568c0,0.312,0.252,0.568,0.564,0.568l24.984,0.052l6.02,0.012
				c0.312,0,0.568-0.252,0.568-0.568c0-0.312-0.252-0.568-0.564-0.568l-3.984-0.008L176.844,99.14z"/>
			<path d="M196.408,106.868c0-0.312-0.252-0.568-0.564-0.568l-28.424-0.06c-0.312,0-0.568,0.252-0.568,0.568
				c0,0.312,0.252,0.568,0.564,0.568l28.424,0.06C196.152,107.436,196.408,107.184,196.408,106.868z"/>
			<path d="M204.472,106.32l-5.896-0.012c-0.312,0-0.568,0.252-0.568,0.568c0,0.312,0.252,0.568,0.564,0.568l5.896,0.012
				c0.312,0,0.568-0.252,0.568-0.568S204.784,106.32,204.472,106.32z"/>
			<path d="M192.704,113.212l-25.916-0.052c-0.312,0-0.568,0.252-0.568,0.568c0,0.312,0.252,0.568,0.564,0.568l25.916,0.052
				c0.312,0,0.568-0.252,0.568-0.568C193.268,113.468,193.016,113.212,192.704,113.212z"/>
			<path d="M167.372,127.724c0,0.316,0.256,0.568,0.568,0.568l24.984,0.052l6.02,0.012c0.312,0,0.568-0.252,0.568-0.568
				c0-0.312-0.252-0.568-0.564-0.568l-3.988-0.008l-27.02-0.056C167.628,127.156,167.372,127.408,167.372,127.724z"/>
			<path d="M186.94,134.16l-28.424-0.056c-0.312,0-0.568,0.252-0.568,0.568c0,0.312,0.252,0.564,0.564,0.564l28.424,0.06
				c0.312,0,0.568-0.252,0.568-0.568C187.504,134.416,187.252,134.16,186.94,134.16z"/>
			<path d="M183.8,140.924l-25.916-0.056c-0.312,0-0.568,0.252-0.568,0.568c0,0.312,0.252,0.568,0.564,0.568l25.916,0.056
				c0.312,0,0.568-0.252,0.568-0.568C184.364,141.18,184.112,140.924,183.8,140.924z"/>
			<path d="M199.292,63.656h-28.448c-0.628,0-1.136,0.508-1.136,1.132v15.02c0.004,0.624,0.512,1.132,1.136,1.132h28.448
				c0.628,0,1.136-0.508,1.136-1.132v-15.02C200.428,64.164,199.92,63.656,199.292,63.656z M198.16,78.672h-26.18V65.92h26.18
				V78.672z"/>
			<path d="M90.7,55.284c-34.468,0-62.508,27.464-62.508,61.22s28.04,61.224,62.508,61.224c34.468,0,62.508-27.468,62.508-61.224
				S125.164,55.284,90.7,55.284z M90.7,174.892c-32.904,0-59.672-26.192-59.672-58.388c0-32.192,26.768-58.384,59.672-58.384
				s59.672,26.192,59.672,58.384C150.372,148.7,123.604,174.892,90.7,174.892z"/>
			<path d="M90.156,74.424c-23.056,0-41.812,18.368-41.812,40.944c0,22.576,18.756,40.94,41.812,40.94
				c23.056,0,41.816-18.368,41.816-40.94C131.972,92.792,113.216,74.424,90.156,74.424z M90.156,155.18
				c-22.428,0-40.68-17.86-40.68-39.808c0-21.952,18.248-39.812,40.68-39.812s40.68,17.86,40.68,39.812
				C130.84,137.32,112.588,155.18,90.156,155.18z"/>
			<path d="M22.684,66.648c-2.736,0-4.956,2.224-4.956,4.956s2.224,4.956,4.956,4.956s4.956-2.224,4.956-4.956
				S25.416,66.648,22.684,66.648z M22.684,75.424c-2.108,0-3.824-1.716-3.824-3.824c0-2.108,1.716-3.824,3.824-3.824
				c2.108,0,3.824,1.716,3.824,3.824C26.508,73.708,24.792,75.424,22.684,75.424z"/>
		</g>
	</g>
</g>
</svg>