<?xml version="1.0" encoding="iso-8859-1"?>
<!-- Uploaded to: SVG Repo, www.svgrepo.com, Generator: SVG Repo Mixer Tools -->
<svg fill="#000000" height="800px" width="800px" version="1.1" id="Layer_1" xmlns="http://www.w3.org/2000/svg" xmlns:xlink="http://www.w3.org/1999/xlink" 
	 viewBox="0 0 318.348 318.348" xml:space="preserve">
<g>
	<g>
		<g>
			<path d="M290.396,76.738h-89.32l-9.596-30.972l-3.108-2.288H80.36l-3.108,2.292l-9.596,30.968h-4.984v-13.5l-2.276-2.276h-39.18
				l-2.276,2.276V78.23C7.944,81.922,0,92.142,0,104.17v135.344c0,15.128,12.544,27.432,27.96,27.432h63.392
				c0.624,0,1.176-0.224,1.672-0.528c12.676,5.424,26.652,8.452,41.344,8.452c14.9,0,29.064-3.12,41.88-8.692
				c0.56,0.456,1.248,0.768,2.028,0.768h112.12c15.412,0,27.952-12.304,27.952-27.432V104.17
				C318.348,89.046,305.808,76.738,290.396,76.738z M82.756,49.986h103.22l8.212,26.508h-26.616c-0.452,0-0.88,0.092-1.268,0.26
				c-10.068-3.204-20.796-4.952-31.936-4.952c-11.128,0-21.84,1.744-31.896,4.94L74.536,76.53L82.756,49.986z M53.36,65.514h4.756
				v11.224H53.36V65.514z M43.084,65.514h5.72v11.224h-5.72V65.514z M33.372,76.654v-11.14h5.156v11.224h-5.172
				C33.356,76.71,33.372,76.682,33.372,76.654z M23.488,65.514h0.004h5.324v11.14c0,0.028,0.016,0.056,0.016,0.084h-0.876
				c-1.524,0-3.008,0.152-4.468,0.38V65.514z M27.96,260.438c-11.828,0-21.448-9.384-21.448-20.924V218.29H31.1
				c1.272,0,2.296-1.028,2.296-2.296c0-1.268-1.028-2.296-2.296-2.296H6.512v-77.62H31.1c1.272,0,2.296-1.028,2.296-2.296
				s-1.028-2.296-2.296-2.296H6.512V104.17c0-11.54,9.62-20.928,21.448-20.928h58.684c-33.2,16.944-55.932,50.956-55.932,90.088
				c0,36.952,20.256,69.344,50.46,87.108H27.96z M134.368,268.362c-53.568,0-97.144-42.636-97.144-95.032
				c0-52.4,43.576-95.032,97.144-95.032s97.144,42.632,97.144,95.032C231.512,225.726,187.936,268.362,134.368,268.362z
				 M311.84,131.486h-71.812c-1.268,0-2.296,1.028-2.296,2.296s1.028,2.296,2.296,2.296h71.812v77.624h-62.344
				c-1.272,0-2.296,1.028-2.296,2.296c0,1.268,1.028,2.296,2.296,2.296h62.34v21.224c0.004,11.536-9.612,20.92-21.44,20.92H187.56
				c30.2-17.764,50.46-50.156,50.46-87.108c0-39.132-22.732-73.144-55.928-90.088h108.304c11.828,0,21.444,9.388,21.444,20.928
				V131.486z"/>
			<path d="M134.368,83.93c-14.96,0-29.772,3.68-42.828,10.64c-1.588,0.844-2.188,2.816-1.34,4.404c0.84,1.584,2.816,2.192,4.4,1.34
				c12.12-6.46,25.872-9.876,39.768-9.876c45.892,0,83.228,36.52,83.228,81.408s-37.336,81.404-83.228,81.404
				c-45.896,0-83.228-36.516-83.228-81.404c0-12.324,2.744-24.164,8.156-35.192c0.792-1.612,0.132-3.564-1.484-4.356
				c-1.616-0.792-3.56-0.12-4.352,1.488c-5.856,11.924-8.828,24.732-8.828,38.06c0,48.476,40.256,87.916,89.74,87.916
				s89.736-39.44,89.736-87.916S183.852,83.93,134.368,83.93z"/>
			<path d="M186.912,195.414c1.176,0.464,2.512-0.124,2.972-1.304c2.588-6.636,3.9-13.628,3.9-20.78
				c0-32.1-26.652-58.216-59.416-58.216c-32.764,0-59.42,26.116-59.42,58.216c0,32.096,26.656,58.212,59.42,58.212
				c15.376,0,29.972-5.74,41.08-16.152c0.924-0.868,0.972-2.32,0.108-3.244c-0.872-0.94-2.324-0.972-3.248-0.108
				c-10.256,9.62-23.736,14.916-37.94,14.916c-30.236,0-54.828-24.056-54.828-53.62c0-29.568,24.592-53.624,54.828-53.624
				c30.228,0,54.824,24.056,54.824,53.624c0,6.58-1.208,13.008-3.588,19.112C185.148,193.626,185.732,194.954,186.912,195.414z"/>
			<path d="M88.704,56.062v12.092c0,2.956,4.592,2.96,4.592,0V56.062C93.292,53.11,88.704,53.102,88.704,56.062z"/>
			<path d="M110.336,68.154V56.062c0-2.952-4.592-2.956-4.592,0v12.092C105.744,71.106,110.336,71.114,110.336,68.154z"/>
			<path d="M127.38,68.154V56.062c0-2.952-4.592-2.956-4.592,0v12.092C122.788,71.106,127.38,71.114,127.38,68.154z"/>
			<path d="M144.424,68.154V56.062c0-2.952-4.592-2.956-4.592,0v12.092C139.832,71.106,144.424,71.114,144.424,68.154z"/>
			<path d="M161.468,68.154V56.062c0-2.952-4.592-2.956-4.592,0v12.092C156.876,71.106,161.468,71.114,161.468,68.154z"/>
			<path d="M178.512,68.154V56.062c0-2.952-4.592-2.956-4.592,0v12.092C173.92,71.106,178.512,71.114,178.512,68.154z"/>
			<path d="M254.336,94.342l-2.296,2.296v22.332l2.296,2.296h42.3l2.296-2.296V96.638l-2.296-2.296H254.336z M294.34,116.674
				h-37.712v-17.74h37.712V116.674z"/>
			<path d="M143.652,145.39c-0.94-0.844-2.376-0.764-3.216,0.168l-9.892,10.968c-0.844,0.936-0.772,2.372,0.164,3.216
				c0.436,0.392,0.984,0.584,1.524,0.584c0.624,0,1.244-0.252,1.692-0.752l9.892-10.972
				C144.664,147.674,144.588,146.23,143.652,145.39z"/>
			<path d="M127.368,163.45c-0.94-0.852-2.376-0.772-3.216,0.164l-21.876,24.26c-0.844,0.936-0.764,2.372,0.168,3.216
				c0.432,0.392,0.98,0.584,1.524,0.584c0.624,0,1.24-0.252,1.688-0.752l21.876-24.26C128.38,165.73,128.308,164.286,127.368,163.45
				z"/>
			<path d="M144.272,180.438c0.624,0,1.24-0.252,1.688-0.752l21.88-24.26c0.844-0.936,0.764-2.372-0.168-3.216
				c-0.936-0.848-2.376-0.772-3.212,0.168l-21.876,24.26c-0.844,0.932-0.772,2.372,0.164,3.212
				C143.184,180.246,143.732,180.438,144.272,180.438z"/>
			<path d="M127.988,198.494c0.624,0,1.24-0.252,1.688-0.752l9.896-10.968c0.844-0.932,0.772-2.372-0.164-3.216
				c-0.94-0.852-2.38-0.772-3.216,0.164l-9.892,10.972c-0.844,0.932-0.772,2.372,0.164,3.212
				C126.9,198.302,127.448,198.494,127.988,198.494z"/>
			<path d="M306.96,173.682V145.07c0-2.956-4.592-2.96-4.592,0v28.612C302.368,176.634,306.96,176.642,306.96,173.682z"/>
			<path d="M302.78,184.562v15.716c0,2.956,4.592,2.96,4.592,0v-15.716C307.372,181.606,302.78,181.602,302.78,184.562z"/>
			<path d="M299.06,252.578c6.792-6.504,7.776-15.62,8.276-24.544c0.164-2.952-4.432-2.944-4.592,0
				c-0.428,7.7-1.036,15.652-6.928,21.296C293.676,251.378,296.928,254.622,299.06,252.578z"/>
		</g>
	</g>
</g>
</svg>