<?xml version="1.0" encoding="iso-8859-1"?>
<!-- Uploaded to: SVG Repo, www.svgrepo.com, Generator: SVG Repo Mixer Tools -->
<svg fill="#000000" height="800px" width="800px" version="1.1" id="Layer_1" xmlns="http://www.w3.org/2000/svg" xmlns:xlink="http://www.w3.org/1999/xlink" 
	 viewBox="0 0 512.001 512.001" xml:space="preserve">
<g>
	<g>
		<path d="M279.454,245.733h-28.22c-9.481,0-17.192-7.713-17.192-17.192v-6.881c0-11.886-9.67-21.556-21.557-21.556H106.456
			c-11.886,0-21.557,9.67-21.557,21.556v6.881c0,9.479-7.713,17.192-17.192,17.192h-28.22C17.714,245.733,0,263.448,0,285.22v33.746
			c0,4.67,3.785,8.455,8.455,8.455c4.669,0,8.455-3.784,8.455-8.455V285.22c0-12.45,10.129-22.578,22.578-22.578h28.22
			c18.804,0,34.102-15.297,34.102-34.102v-6.881c0-2.561,2.086-4.647,4.648-4.647h106.029c2.562,0,4.648,2.086,4.648,4.647v6.881
			c0,18.804,15.299,34.102,34.102,34.102h28.22c12.449,0,22.578,10.128,22.578,22.578v154.966c0,12.45-10.129,22.578-22.579,22.578
			H39.487c-12.449,0-22.578-10.128-22.578-22.578v-69.861c0-4.67-3.785-8.455-8.455-8.455c-4.669,0-8.455,3.784-8.455,8.455v69.861
			c0,21.773,17.714,39.487,39.487,39.487h239.967c21.774,0,39.488-17.714,39.488-39.487V285.22
			C318.942,263.448,301.228,245.733,279.454,245.733z"/>
	</g>
</g>
<g>
	<g>
		<path d="M159.471,282.728c-41.854,0-75.904,34.051-75.904,75.906s34.051,75.904,75.904,75.904
			c41.853,0,75.904-34.05,75.904-75.904S201.324,282.728,159.471,282.728z M159.47,417.628c-32.529,0-58.995-26.466-58.995-58.995
			c0-32.53,26.466-58.996,58.995-58.996s58.995,26.466,58.995,58.996C218.465,391.163,191.999,417.628,159.47,417.628z"/>
	</g>
</g>
<g>
	<g>
		<path d="M270.962,285.149c-4.976,0-9.024,4.048-9.024,9.024s4.048,9.024,9.024,9.024c4.976,0,9.024-4.048,9.024-9.024
			S275.938,285.149,270.962,285.149z"/>
	</g>
</g>
<g>
	<g>
		<path d="M378.469,32.327H121.459c-4.669,0-8.455,3.784-8.455,8.455v127.57c0,4.67,3.785,8.455,8.455,8.455
			c4.669,0,8.455-3.784,8.455-8.455V49.236h240.101v71.768c0,4.67,3.785,8.455,8.455,8.455c4.669,0,8.455-3.784,8.455-8.455V40.781
			C386.924,36.111,383.138,32.327,378.469,32.327z"/>
	</g>
</g>
<g>
	<g>
		<path d="M341.913,68.21H157.187c-4.669,0-8.455,3.784-8.455,8.455v93.941c0,4.67,3.785,8.455,8.455,8.455
			c4.669,0,8.455-3.784,8.455-8.455V85.119h167.816v25.364c0,4.67,3.786,8.455,8.455,8.455s8.455-3.784,8.455-8.455V76.665
			C350.368,71.994,346.582,68.21,341.913,68.21z"/>
	</g>
</g>
<g>
	<g>
		<path d="M506.595,200.46l-239.683-92.772c-4.354-1.686-9.252,0.479-10.936,4.833l-23.58,60.917
			c-1.686,4.354,0.478,9.251,4.833,10.936c4.358,1.686,9.252-0.479,10.937-4.833l20.527-53.033l223.913,86.669l-86.668,223.914
			l-61.415-23.771c-4.35-1.685-9.251,0.479-10.936,4.833c-1.686,4.354,0.478,9.251,4.833,10.936l69.3,26.823
			c1.003,0.389,2.035,0.573,3.05,0.573c3.39,0,6.589-2.054,7.887-5.405l92.772-239.683
			C513.114,207.041,510.949,202.145,506.595,200.46z"/>
	</g>
</g>
<g>
	<g>
		<path d="M464.232,225.194c-0.906-2.051-2.591-3.658-4.682-4.467l-172.272-66.679c-2.123-0.822-4.487-0.754-6.556,0.19
			c-2.071,0.944-3.674,2.682-4.447,4.821l-21.725,60.154c-1.586,4.392,0.689,9.238,5.08,10.824c4.393,1.588,9.238-0.689,10.824-5.08
			l18.788-52.02l156.321,60.505l-46.989,121.399l-56.49-21.865c-4.355-1.686-9.252,0.479-10.936,4.833
			c-1.686,4.354,0.478,9.251,4.833,10.936l64.374,24.918c4.117,1.596,9.263-0.507,10.936-4.833l53.092-137.169
			C465.192,229.572,465.138,227.245,464.232,225.194z"/>
	</g>
</g>
</svg>